<svg width="26" height="26" viewBox="0 0 26 26" fill="none" xmlns="http://www.w3.org/2000/svg">
<path fill-rule="evenodd" clip-rule="evenodd" d="M6.39867 7.07377C8.25585 4.94248 10.8846 3.88217 13.4745 3.96077L16.0538 6.44961L14.3444 8.21554C12.5417 7.68904 10.4891 8.26251 9.18093 9.83039C7.43941 11.9176 7.67666 14.9768 9.71085 16.6633C11.745 18.3498 14.8059 18.0249 16.5474 15.9376C17.8456 14.3817 18.0442 12.2855 17.2185 10.6206L18.7436 9.04511L21.7672 11.9626C21.912 14.2178 21.1874 16.5495 19.5611 18.4157C16.3304 22.1233 10.7648 22.5899 7.13011 19.4579C3.4954 16.3259 3.16792 10.7813 6.39867 7.07377Z" fill="#2614F1"/>
<path d="M21.9461 3.65449L21.9461 9.81447L15.5421 3.65449L21.9461 3.65449Z" fill="#FFBD59"/>
</svg>
