<svg width="274" height="79" viewBox="0 0 274 79" fill="none" xmlns="http://www.w3.org/2000/svg">
<path d="M85.6562 68H78.2812V46.75C78.2812 44.0833 77.7396 42.0938 76.6562 40.7812C75.5938 39.4688 73.8958 38.8125 71.5625 38.8125C68.4792 38.8125 66.2083 39.7396 64.75 41.5938C63.3125 43.4271 62.5938 46.5104 62.5938 50.8438V68H55.25V19.375H62.5938V31.7188C62.5938 33.6979 62.4688 35.8125 62.2188 38.0625H62.6875C63.6875 36.3958 65.0729 35.1042 66.8438 34.1875C68.6354 33.2708 70.7188 32.8125 73.0938 32.8125C81.4688 32.8125 85.6562 37.0312 85.6562 45.4688V68ZM104.499 68H97.155V33.4375H104.499V68ZM96.7175 24.2812C96.7175 22.9688 97.0717 21.9583 97.78 21.25C98.5092 20.5417 99.5404 20.1875 100.874 20.1875C102.165 20.1875 103.165 20.5417 103.874 21.25C104.603 21.9583 104.967 22.9688 104.967 24.2812C104.967 25.5312 104.603 26.5208 103.874 27.25C103.165 27.9583 102.165 28.3125 100.874 28.3125C99.5404 28.3125 98.5092 27.9583 97.78 27.25C97.0717 26.5208 96.7175 25.5312 96.7175 24.2812ZM145.435 68H138.06V46.6875C138.06 44.0417 137.56 42.0729 136.56 40.7812C135.56 39.4688 133.998 38.8125 131.873 38.8125C129.039 38.8125 126.956 39.7396 125.623 41.5938C124.31 43.4271 123.654 46.4896 123.654 50.7812V68H116.31V33.4375H122.06L123.091 37.9688H123.466C124.425 36.3229 125.81 35.0521 127.623 34.1562C129.456 33.2604 131.466 32.8125 133.654 32.8125C138.966 32.8125 142.487 34.625 144.216 38.25H144.716C145.737 36.5417 147.175 35.2083 149.029 34.25C150.883 33.2917 153.008 32.8125 155.404 32.8125C159.529 32.8125 162.529 33.8542 164.404 35.9375C166.3 38.0208 167.248 41.1979 167.248 45.4688V68H159.904V46.6875C159.904 44.0417 159.393 42.0729 158.373 40.7812C157.373 39.4688 155.81 38.8125 153.685 38.8125C150.831 38.8125 148.737 39.7083 147.404 41.5C146.091 43.2708 145.435 46 145.435 49.6875V68ZM193.871 68.625C188.496 68.625 184.288 67.0625 181.246 63.9375C178.225 60.7917 176.715 56.4688 176.715 50.9688C176.715 45.3229 178.121 40.8854 180.934 37.6562C183.746 34.4271 187.611 32.8125 192.527 32.8125C197.09 32.8125 200.694 34.1979 203.34 36.9688C205.986 39.7396 207.309 43.5521 207.309 48.4062V52.375H184.277C184.382 55.7292 185.288 58.3125 186.996 60.125C188.705 61.9167 191.111 62.8125 194.215 62.8125C196.257 62.8125 198.152 62.625 199.902 62.25C201.673 61.8542 203.569 61.2083 205.59 60.3125V66.2812C203.798 67.1354 201.986 67.7396 200.152 68.0938C198.319 68.4479 196.225 68.625 193.871 68.625ZM192.527 38.375C190.194 38.375 188.319 39.1146 186.902 40.5938C185.507 42.0729 184.673 44.2292 184.402 47.0625H200.09C200.048 44.2083 199.361 42.0521 198.027 40.5938C196.694 39.1146 194.861 38.375 192.527 38.375Z" fill="#2B46B3"/>
<path d="M229 52L215.5 69.3205V34.6795L229 52Z" fill="#FFBD59"/>
<path fill-rule="evenodd" clip-rule="evenodd" d="M25.1163 68C33.2083 68 40.4066 64.1909 45 58.2758V50.2917H39.0034C36.3714 55.2477 31.1401 58.625 25.1163 58.625C16.4467 58.625 9.4186 51.6294 9.4186 43C9.4186 34.3706 16.4467 27.375 25.1163 27.375C31.9511 27.375 37.7658 31.723 39.9207 37.7917H45V27.7242C40.4066 21.8091 33.2083 18 25.1163 18C11.2449 18 0 29.1929 0 43C0 56.8071 11.2449 68 25.1163 68Z" fill="#2B46B3"/>
<path fill-rule="evenodd" clip-rule="evenodd" d="M9.41894 42.8898C9.41868 42.9265 9.41856 42.9632 9.41856 43H9.27612L9.41894 42.8898ZM11.2158 35.7335C13.8434 30.7637 19.0822 27.375 25.1162 27.375C31.9511 27.375 37.7657 31.723 39.9207 37.7917H45V27.7242C40.4065 21.8091 33.2083 18 25.1162 18C15.0046 18 6.28853 23.9477 2.30658 32.5201L11.2158 35.7335Z" fill="#3CCEEE"/>
</svg>
