<?xml version="1.0" standalone="no"?><svg xmlns="http://www.w3.org/2000/svg" viewBox="0 0 1440 320"><path fill="#3E64FF" fill-opacity="1" d="M0,128L30,128C60,128,120,128,180,138.7C240,149,300,171,360,165.3C420,160,480,128,540,133.3C600,139,660,181,720,176C780,171,840,117,900,96C960,75,1020,85,1080,96C1140,107,1200,117,1260,106.7C1320,96,1380,64,1410,48L1440,32L1440,320L1410,320C1380,320,1320,320,1260,320C1200,320,1140,320,1080,320C1020,320,960,320,900,320C840,320,780,320,720,320C660,320,600,320,540,320C480,320,420,320,360,320C300,320,240,320,180,320C120,320,60,320,30,320L0,320Z"></path></svg>